<svg xmlns="http://www.w3.org/2000/svg" viewBox="0 0 24 24" fill="currentColor"><path d="M12 2C6.5 2 2 6.5 2 12s4.5 10 10 10 10-4.5 10-10S17.5 2 12 2zm0 3.5c1.1 0 2 .4 2.7 1.1L12 9.3 9.3 6.6c.7-.7 1.6-1.1 2.7-1.1zm-5.3 2.4L9.4 10H6.2c.3-.8.8-1.5 1.5-2.1zM5.5 12c0-.5.1-1 .2-1.5h4.1L12 13.2l2.2-2.7h4.1c.1.5.2 1 .2 1.5s-.1 1-.2 1.5h-4.1L12 14.8l-2.2 2.7H5.7c-.1-.5-.2-1-.2-1.5zm1.2 3.6c-.7-.6-1.2-1.3-1.5-2.1h3.2l-1.7 2.1zm4 2.5c-1.1 0-2-.4-2.7-1.1L12 14.7l2.7 2.7c-.7.7-1.6 1.1-2.7 1.1zm5.3-2.4l-1.7-2.1h3.2c-.3.8-.8 1.5-1.5 2.1z"/></svg>
