<svg xmlns="http://www.w3.org/2000/svg" viewBox="0 0 24 24" fill="currentColor"><path d="M12 2C6.5 2 2 6.5 2 12c0 4.4 2.9 8.2 6.8 9.5.5.1.7-.2.7-.5v-1.7c-2.8.6-3.4-1.2-3.4-1.2-.4-1.1-1.1-1.4-1.1-1.4-.9-.6.1-.6.1-.6 1 .1 1.5 1 1.5 1 .9 1.5 2.3 1.1 2.9.8.1-.7.3-1.1.6-1.3-2.2-.2-4.6-1.1-4.6-5 0-1.1.4-2 1-2.7-.1-.3-.4-1.3.1-2.7 0 0 .8-.3 2.8 1 .8-.2 1.6-.3 2.5-.3s1.7.1 2.5.3c2-.1 2.8-1 2.8-1 .5 1.4.2 2.4.1 2.7.6.7 1 1.6 1 2.7 0 3.9-2.3 4.8-4.6 5 .4.3.7.9.7 1.8v2.6c0 .3.2.6.7.5C19.1 20.2 22 16.4 22 12c0-5.5-4.5-10-10-10z"/></svg>
