<svg xmlns="http://www.w3.org/2000/svg" viewBox="0 0 24 24" fill="currentColor"><path d="M0 0h24v24H0V0zm22.034 18.282c-.175 1.84-.903 3.15-2.033 3.978-.947.706-2.084 1.007-3.47 1.007-1.33 0-2.44-.286-3.36-.846v-2.93c.836.65 1.85 1.03 3.04 1.03.846 0 1.48-.22 1.92-.65.44-.433.668-1.046.692-1.834h-4.06v-.75c0-1.18.203-2.16.61-2.94.405-.78.965-1.38 1.68-1.81.716-.43 1.542-.645 2.48-.645.7 0 1.33.1 1.88.3v2.42c-.47-.25-1.07-.37-1.8-.37-.62 0-1.11.18-1.48.55-.37.37-.555.9-.555 1.59v.73h3.32c0 .54-.04 1-.12 1.39zm-9.996 5.704c-.94 0-1.785-.146-2.535-.44v-2.93c.53.25 1.15.44 1.86.57.71.13 1.34.2 1.89.2.85 0 1.5-.18 1.95-.55.45-.37.68-.88.68-1.54 0-.44-.12-.81-.36-1.11-.24-.3-.66-.6-1.26-.9l-1.58-.8c-1.04-.53-1.8-1.15-2.28-1.86-.48-.71-.72-1.55-.72-2.52 0-1.14.35-2.08 1.05-2.82.7-.74 1.68-1.11 2.94-1.11.96 0 1.84.18 2.64.54v2.88c-.62-.34-1.35-.51-2.19-.51-.7 0-1.23.16-1.6.48-.36.32-.55.74-.55 1.26 0 .10.0.1.4 10.0.1.1.66.59 1.23.89l1.56.78c1.09.55 1.88 1.17 2.36 1.87.49.7.73 1.54.73 2.52 0 1.19-.37 2.15-1.1 2.87-.74.72-1.78 1.08-3.13 1.08z"/></svg>
