<svg xmlns="http://www.w3.org/2000/svg" viewBox="0 0 24 24" fill="currentColor"><path d="M14.23 12.004a2.236 2.236 0 0 1-2.228 2.225 2.236 2.236 0 0 1-2.229-2.225 2.236 2.236 0 0 1 2.229-2.225 2.236 2.236 0 0 1 2.228 2.225zm2.648-10.69c-1.346 0-3.107.96-4.888 2.622-1.78-1.653-3.542-2.602-4.887-2.602-.41 0-.783.093-1.106.278-1.375.793-1.683 3.264-.973 6.365C1.98 8.917 0 10.42 0 12.004c0 1.59 1.99 3.097 5.043 4.03-.704 3.113-.39 5.588.988 6.38.32.187.69.275 1.102.275 1.345 0 3.107-.96 4.888-2.624 1.78 1.654 3.542 2.603 4.887 2.603.41 0 .783-.09 1.106-.275 1.374-.792 1.683-3.263.973-6.365C22.02 15.096 24 13.59 24 12.004c0-1.59-1.99-3.097-5.043-4.032.704-3.11.39-5.587-.988-6.38-.317-.183-.7-.278-1.092-.278zm-.005 1.09v.006c.225 0 .406.044.558.127.666.382.955 1.835.73 3.704-.061.5-.119 1.015-.175 1.535-1.46-.364-3.028-.585-4.647-.66-.28-.523-.576-1.024-.888-1.496 1.678-1.487 3.34-2.266 4.422-2.316zm-9.77 0c1.073.049 2.73.822 4.429 2.293-.314.487-.62.996-.904 1.52A23.3 23.3 0 0 0 5.24 7.762c.228-1.864.522-3.318 1.196-3.705.152-.086.337-.128.56-.132zm4.882 3.05c.455.778.827 1.602 1.111 2.455a24.39 24.39 0 0 0-5.032.002c.288-.853.66-1.677 1.114-2.454.157-.266.321-.528.49-.782.306-.46.633-.886.974-1.27.32.389.62.803.894 1.24.137.216.27.437.398.66zm.6 8.366c-.34.82-.71 1.59-1.1 2.3-.392-.71-.76-1.48-1.1-2.3a24.8 24.8 0 0 1-.916-2.7c.303-.02.61-.03.92-.03.31 0 .616.01.919.03.28.88.58 1.78.916 2.7zm-5.628-2.697a23.1 23.1 0 0 1-.586-2.72c1.476-.34 3.092-.53 4.77-.53 1.676 0 3.292.19 4.768.53a23.06 23.06 0 0 1-.585 2.72c-1.326.36-2.75.56-4.183.56-1.433 0-2.857-.2-4.184-.56zm8.84-8.766c1.65 1.487 3.25 2.28 4.323 2.31.226 0 .408-.044.56-.13.675-.387.968-1.84.743-3.706-.058-.5-.118-1.01-.175-1.53A23.84 23.84 0 0 1 17.1 8.59c-.29.52-.597 1.03-.912 1.52z"/></svg>
