<svg xmlns="http://www.w3.org/2000/svg" viewBox="0 0 24 24" fill="currentColor"><path d="M1.125 0C.502 0 0 .502 0 1.125v21.75C0 23.498.502 24 1.125 24h21.75c.623 0 1.125-.502 1.125-1.125V1.125C24 .502 23.498 0 22.875 0zm17.363 9.75c.612 0 1.154.037 1.627.111a6.38 6.38 0 0 1 1.306.34v2.458a3.94 3.94 0 0 0-.643-.361 6.788 6.788 0 0 0-.807-.25 5.866 5.866 0 0 0-.986-.168 6.025 6.025 0 0 0-1.048-.037c-.829.01-1.492.25-1.99.72-.498.47-.748 1.15-.748 2.043 0 .873.25 1.55.748 192.168.1.4 1.161.717 1.99.717.38 0 .73-.04 1.048-.12a6.4 6.4 0 0 0 .986-.332 5.7 5.7 0 0 0 .807-.46 4.2 4.2 0 0 0 .643-.551v2.246a7.318 7.318 0 0 1-1.335.563 8.244 8.244 0 0 1-1.546.25 9.015 9.015 0 0 1-1.896.085 8.148 8.148 0 0 1-1.986-.318 5.36 5.36 0 0 1-1.726-.985 4.937 4.937 0 0 1-1.167-1.627 6.064 6.064 0 0 1-.424-2.363c0-.936.153-1.754.46-2.453a4.84 4.84 0 0 1 1.304-1.756 5.76 5.76 0 0 1 2.015-1.055 9.3 9.3 0 0 1 2.554-.344zm-15.113.188h9.563v2.166H9.506v9.646H6.789v-9.646H3.375z"/></svg>
